<?xml version="1.0" encoding="utf-8"?>
<!-- Generator: Adobe Illustrator 25.2.3, SVG Export Plug-In . SVG Version: 6.00 Build 0)  -->
<svg version="1.1" id="Layer_1" xmlns="http://www.w3.org/2000/svg" xmlns:xlink="http://www.w3.org/1999/xlink" x="0px" y="0px"
	 viewBox="0 0 300 65.9" style="enable-background:new 0 0 300 65.9;" xml:space="preserve">
<style type="text/css">
	.st0{fill-rule:evenodd;clip-rule:evenodd;fill:#0A0B09;}
	.st1{fill:#FF1204;}
</style>
<desc>Created with Sketch.</desc>
<g>
	<path id="Fill-1" class="st0" d="M39.6,21.1c0,0,49.7,0.1,53.9,0.1c-3.3-2.1-9.7-13-20.4-11.7c-4.7,0.4-2.5-2.1-1.8-2.9
		c0.8-0.8,5.6-5.3,12.5-5.2c10.4,0.3,16.6,16.2,26.1,11c1.2,1,2.2,3.2,2.2,3.2s-2.3,3.4-5.2,5.2h189.6v7.3h-3.8v34.8H282V28.5h-4.8
		v34.4h-10.7V39.7H252c0,0-4.8,2.2-4.8,7.5s4.4,10.3,11.7,10c0.5,1.8,1.8,5.1,1.8,5.1s-21.3,5.5-23.7-13c0-4.9,2.7-9.6,2.7-9.6
		l-8.4-0.1v-8.8h35.3v-2.3h-39.2V63h-10.4V47.7c0,0-6.2,0.1-8.1-3.7v-4.4c0,0,5.6,2.7,8-0.5V28.3h-12.3c0,0,3.7,3,3.4,8.1
		c-0.3,5.1-2.2,10.6-14.5,11.9c0,0-0.5,8.9,8.1,8c6.2-0.5,8.4-2.2,8.4-2.2l1.8,4.4c0,0-5.6,4.1-12.2,4.1s-21.8-2.5-21.1-19.3
		c4.4,0.3,16.7,4.4,17.1-6.2c0.3-7.3-9.9-9.2-14.4-4.1l-2.6-1.4c0,0,1.4-2.6,2.6-3.3c-1-0.1-33.7,0-33.7,0v7.5c0,0,6.2-4.8,12.3-4.9
		c5.3-0.1,14.7,3,14.7,13s-5.8,14-11.7,14c-5.2,0-9.3-1-13.3-6.2l2.2-2.5c0,0,12.3,5.9,12.2-4.4s-14.1-5.1-16.5-1.6v19.5h-11.2V52.5
		c0,0-8.1,7.1-14,6.9c-5.9-0.3-14.4-4-13.9-15.5c0.5-10,10.3-12.5,14.3-12.5c3.2,0,7.4,1.2,10,6.2l-2.1,2.1c0,0-1.6-2.1-4.4-1.8
		c-2.6,0.1-6.2,1.5-6.2,6c0,3.4,1.5,6,7.1,6.2c4.4,0.1,7.8-3.7,8.4-4.5V28.7H106v34.7H95.6V28.6H75v7.1c0,0,18.2-4.1,18.5,11.5
		c-0.3,14.4-9.2,15.4-12.8,15.5s-7.4-0.7-11.1-4.5l1.2-3.2c0,0,12.2,5.6,12.2-4.7c0.1-10.3-15.4-9.2-19.1-1c0,0-0.4-9.2-6.7-8.5
		c-4.5,0.5-5.3,4.9-5.3,8.2c0,2.9,0.8,8,6,8.1c3.3,0.1,5.2-3.2,5.2-3.2l2.9,2.9c0,0-2.9,5.6-11.5,5.6c-8.8-0.3-14.7-6.9-14.4-14.8
		c0.3-8,5.1-17.6,23-12.3v-7.3H39.6V21.1"/>
	<path id="Shape" class="st1" d="M31.9,37.4L18.4,25.2c-1.8-1.5-0.5-4.1-0.5-4.1l-0.3-0.3l-2.9,3.6c-1.6,1.9-1.4,4.9,0.5,6.6
		l13.6,12.2c1.8,1.5,0.5,4.1,0.5,4.1l0.3,0.3l2.9-3.6C34.1,42.1,33.9,39,31.9,37.4z"/>
	<path id="Shape_1_" class="st1" d="M25.8,45.2L12.2,33c-1.8-1.5-0.5-4.1-0.5-4.1l-0.3-0.3l-2.9,3.6c-1.6,1.9-1.4,4.9,0.5,6.6
		L22.6,51c1.8,1.5,0.5,4.1,0.5,4.1l0.3,0.3l2.9-3.6C27.8,49.9,27.6,46.9,25.8,45.2z"/>
	<path id="Shape_2_" class="st1" d="M19.5,53L5.9,40.8c-1.8-1.5-0.5-4.1-0.5-4.1l-0.3-0.3L2.2,40c-1.6,1.9-1.4,4.9,0.5,6.6
		l13.6,12.2c1.8,1.5,0.5,4.1,0.5,4.1l0.3,0.3l2.9-3.6C21.7,57.7,21.4,54.7,19.5,53z"/>
</g>
</svg>
