<?xml version="1.0" encoding="utf-8"?>
<!-- Generator: Adobe Illustrator 24.1.2, SVG Export Plug-In . SVG Version: 6.00 Build 0)  -->
<svg version="1.1" id="Layer_1" xmlns="http://www.w3.org/2000/svg" xmlns:xlink="http://www.w3.org/1999/xlink" x="0px" y="0px"
	 viewBox="0 0 509 509" style="enable-background:new 0 0 509 509;" xml:space="preserve">
<style type="text/css">
	.st0{fill:#A0A0A0;}
	.st1{fill:#FFFFFF;}
</style>
<g id="Layer_2_1_">
	<g id="Layer_1-2">
		<g id="Layer_2-2">
			<g id="Layer_1-2-2">
				<path class="st0" d="M254.5,0C395.1,0,509,114,509,254.5S395.1,509,254.5,509S0,395.1,0,254.5S113.9,0,254.5,0z"/>
				<path class="st1" d="M196.6,381.4c117.8,0,182.3-97.6,182.3-182.3c0-2.8-0.1-5.5-0.2-8.3c12.5-9.1,23.4-20.3,32-33.2
					c-11.7,5.2-24.1,8.6-36.8,10.1c13.4-8,23.4-20.6,28.2-35.4c-12.6,7.5-26.3,12.7-40.7,15.6c-24.3-25.8-64.8-27.1-90.6-2.8
					c-16.6,15.6-23.7,39-18.5,61.2c-51.5-2.6-99.5-26.9-132-66.9c-17,29.3-8.3,66.7,19.8,85.5c-10.2-0.3-20.1-3.1-29-8v0.8
					c0,30.5,21.5,56.8,51.4,62.8c-9.4,2.6-19.3,3-28.9,1.1c8.4,26.1,32.4,44,59.8,44.5c-22.7,17.8-50.7,27.5-79.6,27.4
					c-5.1,0-10.2-0.3-15.3-0.9C127.7,371.4,161.8,381.4,196.6,381.4"/>
			</g>
		</g>
	</g>
</g>
</svg>
